<svg xmlns="http://www.w3.org/2000/svg" width="1600" height="760" viewBox="0 0 1600 760" role="img" aria-labelledby="title desc">
  <title id="title">TypeScript full-stack architecture graph generated by CodeOmniVis</title>
  <desc id="desc">Next.js pages and React components connect through API routes and services to Prisma models, producing one architecture graph for the Web UI, CLI, REST API, and MCP server.</desc>
  <defs>
    <marker id="arrow" viewBox="0 0 10 10" refX="9" refY="5" markerWidth="7" markerHeight="7" orient="auto-start-reverse">
      <path d="M 0 0 L 10 5 L 0 10 z" fill="#5b8cff"/>
    </marker>
  </defs>
  <rect width="1600" height="760" rx="24" fill="#090b0f"/>
  <rect x="36" y="36" width="1528" height="688" rx="18" fill="#0d1016" stroke="#242b36" stroke-width="2"/>
  <g font-family="Inter, ui-sans-serif, system-ui, sans-serif">
    <text x="78" y="94" fill="#e7eaf0" font-size="30" font-weight="650">From repository source to one verified architecture graph</text>
    <text x="78" y="128" fill="#7f8998" font-size="17">Pages, components, APIs, services, and data models stay connected across every CodeOmniVis surface.</text>
    <text x="78" y="184" fill="#7f8998" font-size="13" font-weight="650" letter-spacing="2">SOURCE LAYERS</text>
    <rect x="78" y="210" width="300" height="124" rx="12" fill="#12161e" stroke="#343e4d"/>
    <circle cx="110" cy="244" r="7" fill="#5b8cff"/>
    <text x="130" y="251" fill="#e7eaf0" font-size="20" font-weight="620">Frontend</text>
    <text x="110" y="285" fill="#a9b1be" font-size="16">Next.js pages</text>
    <text x="110" y="311" fill="#a9b1be" font-size="16">React component graph</text>
    <rect x="78" y="356" width="300" height="124" rx="12" fill="#12161e" stroke="#343e4d"/>
    <circle cx="110" cy="390" r="7" fill="#d6a84b"/>
    <text x="130" y="397" fill="#e7eaf0" font-size="20" font-weight="620">Application</text>
    <text x="110" y="431" fill="#a9b1be" font-size="16">API routes · RPC procedures</text>
    <text x="110" y="457" fill="#a9b1be" font-size="16">Handlers · services</text>
    <rect x="78" y="502" width="300" height="124" rx="12" fill="#12161e" stroke="#343e4d"/>
    <circle cx="110" cy="536" r="7" fill="#47b881"/>
    <text x="130" y="543" fill="#e7eaf0" font-size="20" font-weight="620">Data</text>
    <text x="110" y="577" fill="#a9b1be" font-size="16">Prisma ER diagram</text>
    <text x="110" y="603" fill="#a9b1be" font-size="16">TypeORM · Drizzle models</text>
    <path d="M 378 272 C 470 272, 470 320, 548 340" fill="none" stroke="#5b8cff" stroke-width="3" marker-end="url(#arrow)"/>
    <path d="M 378 418 C 470 418, 474 390, 548 380" fill="none" stroke="#5b8cff" stroke-width="3" marker-end="url(#arrow)"/>
    <path d="M 378 564 C 470 564, 470 452, 548 420" fill="none" stroke="#5b8cff" stroke-width="3" marker-end="url(#arrow)"/>
    <rect x="548" y="232" width="430" height="330" rx="20" fill="#0b0f14" stroke="#5b8cff" stroke-width="2"/>
    <rect x="578" y="262" width="370" height="58" rx="9" fill="#12161e" stroke="#242b36"/>
    <circle cx="608" cy="291" r="9" fill="#5b8cff"/>
    <text x="634" y="298" fill="#e7eaf0" font-size="22" font-weight="650">CodeOmniVis graph</text>
    <text x="578" y="358" fill="#7f8998" font-size="13" font-weight="650" letter-spacing="2">VERIFIED RELATIONSHIPS</text>
    <rect x="578" y="382" width="168" height="56" rx="8" fill="#12161e" stroke="#343e4d"/>
    <text x="602" y="416" fill="#a9b1be" font-size="16">renders</text>
    <rect x="770" y="382" width="178" height="56" rx="8" fill="#12161e" stroke="#343e4d"/>
    <text x="794" y="416" fill="#a9b1be" font-size="16">calls_api</text>
    <rect x="578" y="458" width="168" height="56" rx="8" fill="#12161e" stroke="#343e4d"/>
    <text x="602" y="492" fill="#a9b1be" font-size="16">calls_service</text>
    <rect x="770" y="458" width="178" height="56" rx="8" fill="#12161e" stroke="#343e4d"/>
    <text x="794" y="492" fill="#a9b1be" font-size="16">queries_db</text>
    <text x="578" y="546" fill="#7f8998" font-size="15">Every edge carries source location and confidence.</text>
    <path d="M 978 397 C 1050 397, 1058 274, 1118 274" fill="none" stroke="#5b8cff" stroke-width="3" marker-end="url(#arrow)"/>
    <path d="M 978 397 L 1118 397" fill="none" stroke="#5b8cff" stroke-width="3" marker-end="url(#arrow)"/>
    <path d="M 978 397 C 1050 397, 1058 520, 1118 520" fill="none" stroke="#5b8cff" stroke-width="3" marker-end="url(#arrow)"/>
    <text x="1118" y="184" fill="#7f8998" font-size="13" font-weight="650" letter-spacing="2">ONE GRAPH, MULTIPLE SURFACES</text>
    <rect x="1118" y="210" width="376" height="128" rx="12" fill="#12161e" stroke="#343e4d"/>
    <rect x="1144" y="236" width="72" height="72" rx="10" fill="#181e28" stroke="#5b8cff"/>
    <path d="M1162 256h36v28h-36zM1162 291h17" fill="none" stroke="#78a1ff" stroke-width="3" stroke-linecap="round"/>
    <text x="1242" y="267" fill="#e7eaf0" font-size="20" font-weight="620">Architecture workbench</text>
    <text x="1242" y="295" fill="#a9b1be" font-size="15">Search · filter · inspect · focus</text>
    <rect x="1118" y="356" width="376" height="128" rx="12" fill="#12161e" stroke="#343e4d"/>
    <rect x="1144" y="382" width="72" height="72" rx="10" fill="#181e28" stroke="#5b8cff"/>
    <path d="M1164 402h32M1164 418h24M1164 434h35" fill="none" stroke="#78a1ff" stroke-width="3" stroke-linecap="round"/>
    <text x="1242" y="413" fill="#e7eaf0" font-size="20" font-weight="620">CLI and REST API</text>
    <text x="1242" y="441" fill="#a9b1be" font-size="15">Analyze · check · integrate</text>
    <rect x="1118" y="502" width="376" height="128" rx="12" fill="#12161e" stroke="#343e4d"/>
    <rect x="1144" y="528" width="72" height="72" rx="10" fill="#181e28" stroke="#5b8cff"/>
    <circle cx="1180" cy="564" r="18" fill="none" stroke="#78a1ff" stroke-width="3"/>
    <path d="M1173 558h14M1173 570h14" stroke="#78a1ff" stroke-width="3" stroke-linecap="round"/>
    <text x="1242" y="559" fill="#e7eaf0" font-size="20" font-weight="620">MCP for AI agents</text>
    <text x="1242" y="587" fill="#a9b1be" font-size="15">Query verified codebase context</text>
    <text x="78" y="682" fill="#7f8998" font-size="14">Local repository analysis · deterministic findings · no source upload required</text>
    <text x="1494" y="682" fill="#5b8cff" font-size="14" text-anchor="end" font-weight="650">CodeOmniVis</text>
  </g>
</svg>
